<?xml version="1.0" encoding="UTF-8" standalone="no"?>
<svg
   xmlns:dc="http://purl.org/dc/elements/1.1/"
   xmlns:cc="http://creativecommons.org/ns#"
   xmlns:rdf="http://www.w3.org/1999/02/22-rdf-syntax-ns#"
   xmlns:svg="http://www.w3.org/2000/svg"
   xmlns="http://www.w3.org/2000/svg"
   xmlns:sodipodi="http://sodipodi.sourceforge.net/DTD/sodipodi-0.dtd"
   xmlns:inkscape="http://www.inkscape.org/namespaces/inkscape"
   sodipodi:docname="vercel.svg"
   inkscape:version="1.0beta1 (32d4812, 2019-09-19)"
   id="svg954"
   version="1.1"
   viewBox="0 0 79.374998 19.843751"
   height="75"
   width="300">
  <defs
     id="defs948" />
  <sodipodi:namedview
     inkscape:window-maximized="0"
     inkscape:window-y="23"
     inkscape:window-x="0"
     inkscape:window-height="907"
     inkscape:window-width="1600"
     units="px"
     showgrid="false"
     inkscape:document-rotation="0"
     inkscape:current-layer="layer1"
     inkscape:document-units="mm"
     inkscape:cy="168.13861"
     inkscape:cx="328.94284"
     inkscape:zoom="1.260151"
     inkscape:pageshadow="2"
     inkscape:pageopacity="0.0"
     borderopacity="1.0"
     bordercolor="#666666"
     pagecolor="#ffffff"
     id="base" />
  <metadata
     id="metadata951">
    <rdf:RDF>
      <cc:Work
         rdf:about="">
        <dc:format>image/svg+xml</dc:format>
        <dc:type
           rdf:resource="http://purl.org/dc/dcmitype/StillImage" />
        <dc:title></dc:title>
      </cc:Work>
    </rdf:RDF>
  </metadata>
  <g
     id="layer1"
     inkscape:groupmode="layer"
     inkscape:label="Layer 1">
    <g
       transform="matrix(0.26458333,0,0,0.26458333,2.2050464,1.635)"
       id="g1528"
       style="fill:#111827;fill-opacity:1">
      <path
         style="fill:#111827;fill-opacity:1"
         inkscape:connector-curvature="0"
         d="m 141.04,16 c -11.04,0 -19,7.2 -19,18 0,10.8 8.96,18 20,18 6.67,0 12.55,-2.64 16.19,-7.09 l -7.65,-4.42 c -2.02,2.21 -5.09,3.5 -8.54,3.5 -4.79,0 -8.86,-2.5 -10.37,-6.5 h 28.02 c 0.22,-1.12 0.35,-2.28 0.35,-3.5 0,-10.79 -7.96,-17.99 -19,-17.99 z m -9.46,14.5 c 1.25,-3.99 4.67,-6.5 9.45,-6.5 4.79,0 8.21,2.51 9.45,6.5 z M 248.72,16 c -11.04,0 -19,7.2 -19,18 0,10.8 8.96,18 20,18 6.67,0 12.55,-2.64 16.19,-7.09 l -7.65,-4.42 c -2.02,2.21 -5.09,3.5 -8.54,3.5 -4.79,0 -8.86,-2.5 -10.37,-6.5 h 28.02 c 0.22,-1.12 0.35,-2.28 0.35,-3.5 0,-10.79 -7.96,-17.99 -19,-17.99 z m -9.45,14.5 c 1.25,-3.99 4.67,-6.5 9.45,-6.5 4.79,0 8.21,2.51 9.45,6.5 z M 200.24,34 c 0,6 3.92,10 10,10 4.12,0 7.21,-1.87 8.8,-4.92 l 7.68,4.43 c -3.18,5.3 -9.14,8.49 -16.48,8.49 -11.05,0 -19,-7.2 -19,-18 0,-10.8 7.96,-18 19,-18 7.34,0 13.29,3.19 16.48,8.49 l -7.68,4.43 c -1.59,-3.05 -4.68,-4.92 -8.8,-4.92 -6.07,0 -10,4 -10,10 z M 282.72,5 v 46 h -9 V 5 Z M 36.95,0 73.9,64 H 0 Z M 129.33,5 101.62,53 73.91,5 H 84.3 l 17.32,30 17.32,-30 z m 58.91,12 v 9.69 c -1,-0.29 -2.06,-0.49 -3.2,-0.49 -5.81,0 -10,4 -10,10 V 51 h -9 V 17 h 9 v 9.2 c 0,-5.08 5.91,-9.2 13.2,-9.2 z"
         fill="#000"
         id="path1517" />
    </g>
  </g>
</svg>
